<svg xmlns="http://www.w3.org/2000/svg" viewBox="0 0 800 800"><g fill="#fff"><path d="M610.28 601.14c11.51 0 21.48-3.8 29.96-11.3L495.18 444.78c-3.48 2.49-6.85 4.91-10.04 7.22a669 669 0 0 1-26.43 18.7c-6.76 4.49-15.76 9.06-27 13.72-11.24 4.67-21.71 7-31.43 7H399.71c-9.71 0-20.19-2.33-31.43-7-11.24-4.66-20.24-9.23-27-13.71A672.9 672.9 0 0 1 314.85 452c-3.03-2.22-6.38-4.66-10.01-7.26l-145.09 145.1a43.77 43.77 0 0 0 29.97 11.3h420.56zM172.86 353.43A151.48 151.48 0 0 1 144 328.57v220.7l127.85-127.85a9884.15 9884.15 0 0 0-98.99-67.99zM627.43 353.43a8416.2 8416.2 0 0 0-99.23 68.04L656 549.27v-220.7a157.68 157.68 0 0 1-28.57 24.86z"/><path d="M610.28 198.86H189.72c-14.68 0-25.96 4.95-33.86 14.85-7.9 9.9-11.85 22.29-11.85 37.14 0 12 5.23 25 15.7 39 10.48 14 21.63 25 33.44 33 6.47 4.58 26 18.15 58.57 40.72 17.58 12.18 32.88 22.8 46.02 31.97 11.2 7.8 20.86 14.56 28.84 20.17l4.26 3.04 7.88 5.68c6.2 4.48 11.33 8.1 15.43 10.86 4.09 2.76 9.04 5.85 14.86 9.28 5.8 3.43 11.29 6 16.43 7.72a45.46 45.46 0 0 0 14.28 2.57H400.3c4.38 0 9.14-.86 14.29-2.57a86.49 86.49 0 0 0 16.43-7.72 304.5 304.5 0 0 0 14.86-9.28c4.1-2.77 9.23-6.38 15.43-10.86a1916.37 1916.37 0 0 1 12.14-8.72l28.91-20.1 104.8-72.76a135.9 135.9 0 0 0 34.86-35.14c9.32-13.7 13.99-28.09 13.99-43.14 0-12.57-4.53-23.33-13.57-32.29-9.05-8.95-19.77-13.42-32.15-13.42z"/></g></svg>