<svg xmlns="http://www.w3.org/2000/svg" viewBox="0 0 3200 3200"><g fill="#fff" fill-rule="evenodd"><path d="M2410.13359594 2036.80025781c-59.56054688-47.94921875-123.20800781-90.98632812-185.859375-134.95117187-124.95117188-87.75878906-239.23828125-94.58007813-332.47558594 46.61132812-52.35839844 79.26757813-125.65429688 82.73925781-202.29492188 47.96386719-211.27929687-95.80078125-374.42871093-243.40820313-469.99511718-458.15429688-42.27539063-95.00976562-41.71875-180.19042968 57.19238281-247.3876953 52.36816406-35.53710938 105.12695313-77.58789063 100.90820313-155.23925782-5.5078125-101.25-251.34277344-439.61425781-348.42285157-475.32714844-40.17089843-14.78027344-80.17578125-13.81835937-121.04492187-.08300781-227.63671875 76.55273437-321.92382813 263.76464844-231.62597656 485.43457031 269.38476562 661.33789063 743.45703125 1121.73828125 1396.04492187 1402.74414063 37.20703125 16.00097656 78.54003906 22.39746093 99.46777344 28.13964843 148.57421875 1.49414063 322.62207031-141.65039062 372.88574219-283.7109375 48.39355468-136.66992187-53.88183594-190.91796875-134.78027344-256.04003906zM1678.41972875 728.1186172c477.08496094 73.36425781 697.109375 300.21972656 757.86132813 780.73730468 5.63476562 44.38476563-10.8984375 111.171875 52.4267578 112.40234375 66.18164063 1.26464844 50.234375-64.5361328 50.79101563-108.96484375 5.59570313-452.55859375-389.00878906-872.09960937-847.28515625-887.56835937-34.57519531 4.97558594-106.11816406-23.84277344-110.58105468 53.65234375-2.97363282 52.24609375 57.26074218 43.66210937 96.78710937 49.74121094z"/><path d="M1771.74004125 859.87154687c-45.88867188-5.52734375-106.46972656-27.1484375-117.19238281 36.5234375-11.19628906 66.8310547 56.32324219 60.04394532 99.70703125 69.75585938 294.65820312 65.85449219 397.25585937 173.10058594 445.77148437 465.38574219 7.08496094 42.61230469-6.9921875 108.93554687 65.42480469 97.94433594 53.66699219-8.17382813 34.28222656-65.02441407 38.76953125-98.23242188 2.37792969-280.61523438-238.07617188-536.02539063-532.48046875-571.37695313z"/><path d="M1798.79570531 1089.3344375c-30.62988281.75683594-60.69335937 4.07226563-71.953125 36.80664063-16.90917968 48.92578124 18.66210938 60.5908203 54.86816407 66.40625 120.87402343 19.40429687 184.48730468 90.67871093 196.5625 211.2158203 3.26171875 32.71484376 24.0234375 59.22363282 55.625 55.49316407 43.7939453-5.22460938 47.75390625-44.20410156 46.4111328-81.22070313 2.16308595-135.41992187-150.8984375-291.94335937-281.51367187-288.70117187z"/></g></svg>