<svg xmlns="http://www.w3.org/2000/svg" viewBox="0 0 256 256.00001"><path fill="#fff" fill-rule="evenodd" d="M204.3113005 86.93251c1.11125-3.7075 0-6.4325-5.2925-6.4325h-17.5c-4.45 0-6.50125 2.35375-7.61375 4.94875 0 0-8.89875 21.6925-21.50625 35.78275-4.07875 4.0785-5.9325 5.376375-8.1575 5.376375-1.1125 0-2.7225-1.297875-2.7225-5.005375v-34.67c0-4.45-1.29125-6.4325-5-6.4325h-27.50025c-2.78075 0-4.453125 2.065-4.453125 4.0225 0 4.21875 6.30325 5.19125 6.953125 17.05625v25.771375c0 5.649875-1.0205 6.67475-3.245 6.67475-5.932625 0-20.363875-21.789875-28.922375-46.721125-1.67775-4.84625-3.359875-6.80375-7.832625-6.80375h-17.5c-5 0-6 2.35375-6 4.94875 0 4.63625 5.933125 27.625 27.624625 58.03125 14.460875 20.763625 34.835375 32.02 53.375375 32.02 11.124 0 12.50025-2.5 12.50025-6.806125V153.00001c0-5 1.05375-5.9975 4.57625-5.9975 2.595 0 7.045 1.29725 17.4275 11.3085 11.86625 11.86675 13.8225 17.189 20.49625 17.189h17.5c5 0 7.5-2.5 6.0575-7.433625-1.5775-4.9175-7.24375-12.05125-14.76-20.50775-4.07875-4.821375-10.1975-10.01125-12.05125-12.6075-2.59625-3.337375-1.85375-4.82125 0-7.786625 0 0 21.32125-30.0345 23.54625-40.232"/></svg>