<svg xmlns="http://www.w3.org/2000/svg" viewBox="0 0 800 800"><defs><clipPath id="e"><path d="M0 1066.861h1280.244V0H0v1066.861z"/></clipPath><clipPath id="f"><path d="M392.927 773.982h496v-497h-496v497z"/></clipPath><clipPath id="a"><path d="M392.927 773.982h496v-497h-496v497z"/></clipPath><clipPath id="i"><path d="M420.927 746.982h438v-440h-438v440z"/></clipPath><clipPath id="b"><path d="M420.927 746.982h438v-440h-438v440z"/></clipPath><clipPath id="l"><path d="M0 1066.861h1280.244V0H0v1066.861z"/></clipPath><clipPath id="m"><path d="M417.927 752.982h444v-446h-444v446z"/></clipPath><clipPath id="c"><path d="M417.927 752.982h444v-446h-444v446z"/></clipPath><clipPath id="p"><path d="M432.555 532.885c-.013-36.747 9.588-72.618 27.838-104.237L430.804 320.61l110.564 28.991c30.462-16.613 64.76-25.368 99.664-25.381h.09c114.945 0 208.515 93.543 208.564 208.496.019 55.714-21.656 108.099-61.031 147.508-39.38 39.408-91.744 61.121-147.533 61.146-114.964 0-208.521-93.528-208.567-208.485m65.842-98.793l-4.127 6.555c-17.354 27.593-26.515 59.481-26.501 92.224.037 95.549 77.798 173.283 173.418 173.283 46.305-.019 89.824-18.068 122.557-50.822 32.729-32.753 50.74-76.295 50.726-122.602-.04-95.552-77.804-173.297-173.348-173.297h-.068c-31.111.016-61.621 8.369-88.231 24.16l-6.333 3.753-65.61-17.201 17.517 63.947zM641.122 324.22h0m0 0c-.002 0-.005 0 0 0"/></clipPath><linearGradient id="q" x2="1" gradientTransform="matrix(0 420.76019 420.76019 0 640.24524 320.60965)" gradientUnits="userSpaceOnUse"><stop offset="0" stop-color="#f9f9f9"/><stop offset="1" stop-color="#fff"/></linearGradient><clipPath id="r"><path d="M0 1066.861h1280.244V0H0v1066.861z"/></clipPath><clipPath id="s"><path d="M522.927 639.982h237v-222h-237v222z"/></clipPath><clipPath id="d"><path d="M522.927 639.982h237v-222h-237v222z"/></clipPath></defs><g clip-path="url(#e)" transform="matrix(1.25 0 0 -1.25 -401.15884 1056.85274)"><g><path fill="#fff" d="M546.4902 387.3468l6.333-3.754c26.611-15.791 57.12-24.143 88.231-24.16h.068c95.544 0 173.307 77.745 173.348 173.297.014 46.307-17.997 89.849-50.727 122.603-32.732 32.753-76.251 50.802-122.556 50.821-95.62 0-173.381-77.734-173.419-173.283-.013-32.743 9.148-64.631 26.502-92.224l4.126-6.555-17.517-63.947 65.611 17.202zm-115.686-66.737l29.589 108.039c-18.25 31.619-27.852 67.489-27.838 104.236.046 114.958 93.603 208.485 208.567 208.485 55.789-.024 108.153-21.738 147.533-61.145 39.374-39.41 61.05-91.795 61.031-147.509-.049-114.952-93.619-208.496-208.564-208.496-.008 0 .005 0 0 0h-.09c-34.903.014-69.202 8.768-99.664 25.381l-110.564-28.991z"/></g></g><g clip-path="url(#p)" transform="matrix(1.25 0 0 -1.25 -401.15884 1056.85274)"><path fill="url(#q)" d="M432.555 532.885c-.013-36.747 9.588-72.618 27.838-104.237L430.804 320.61l110.564 28.991c30.462-16.613 64.76-25.368 99.664-25.381h.09c114.945 0 208.515 93.543 208.564 208.496.019 55.714-21.656 108.099-61.031 147.508-39.38 39.408-91.744 61.121-147.533 61.146-114.964 0-208.521-93.528-208.567-208.485m65.842-98.793l-4.127 6.555c-17.354 27.593-26.515 59.481-26.501 92.224.037 95.549 77.798 173.283 173.418 173.283 46.305-.019 89.824-18.068 122.557-50.822 32.729-32.753 50.74-76.295 50.726-122.602-.04-95.552-77.804-173.297-173.348-173.297h-.068c-31.111.016-61.621 8.369-88.231 24.16l-6.333 3.753-65.61-17.201 17.517 63.947zM641.122 324.22h0m0 0c-.002 0-.005 0 0 0"/></g><g clip-path="url(#r)" transform="matrix(1.25 0 0 -1.25 -401.15884 1056.85274)"><g><path fill="#fff" fill-rule="evenodd" d="M588.9946 620.0432c-3.904 8.678-8.013 8.852-11.727 9.004-3.037.13-6.515.122-9.987.122-3.474 0-9.121-1.305-13.895-6.52-4.778-5.215-18.242-17.821-18.242-43.46 0-25.642 18.676-50.417 21.279-53.897 2.606-3.475 36.052-57.771 89.021-78.66 44.022-17.359 52.98-13.906 62.535-13.038 9.555.869 30.832 12.604 35.175 24.773 4.343 12.167 4.343 22.596 3.04 24.776-1.303 2.172-4.777 3.475-9.989 6.081-5.212 2.606-30.832 15.215-35.61 16.952-4.777 1.737-8.252 2.606-11.726-2.611-3.475-5.212-13.456-16.947-16.497-20.422-3.04-3.483-6.08-3.917-11.292-1.311-5.212 2.614-21.996 8.111-41.907 25.864-15.492 13.812-25.951 30.87-28.992 36.087-3.04 5.212-.325 8.035 2.289 10.633 2.34 2.335 5.212 6.083 7.818 9.126 2.6 3.043 3.469 5.215 5.206 8.69 1.737 3.48.869 6.523-.434 9.129s-11.431 28.378-16.065 38.682"/></g></g></svg>